<svg width="80" height="80" viewBox="0 0 72 72" fill="none" xmlns="http://www.w3.org/2000/svg">
  <defs>
    <filter id="glow" x="-40%" y="-40%" width="180%" height="180%">
      <feGaussianBlur stdDeviation="2.5" result="coloredBlur"/>
      <feMerge><feMergeNode in="coloredBlur"/><feMergeNode in="SourceGraphic"/></feMerge>
    </filter>
    <radialGradient id="nodeGrad" cx="50%" cy="50%" r="50%">
      <stop offset="0%" stop-color="#818cf8"/>
      <stop offset="100%" stop-color="#6366f1"/>
    </radialGradient>
    <radialGradient id="centerGrad" cx="50%" cy="50%" r="50%">
      <stop offset="0%" stop-color="#a5b4fc"/>
      <stop offset="100%" stop-color="#6366f1"/>
    </radialGradient>
  </defs>
  <g filter="url(#glow)" stroke="#6366f1" stroke-width="1.5" stroke-linecap="round" opacity="0.7">
    <line x1="36" y1="36" x2="16" y2="16"/>
    <line x1="36" y1="36" x2="56" y2="14"/>
    <line x1="36" y1="36" x2="62" y2="38"/>
    <line x1="36" y1="36" x2="52" y2="58"/>
    <line x1="36" y1="36" x2="18" y2="56"/>
    <line x1="36" y1="36" x2="10" y2="38"/>
    <line x1="16" y1="16" x2="56" y2="14" stroke-dasharray="3 3" opacity="0.4"/>
    <line x1="62" y1="38" x2="52" y2="58" stroke-dasharray="3 3" opacity="0.4"/>
    <line x1="10" y1="38" x2="18" y2="56" stroke-dasharray="3 3" opacity="0.4"/>
  </g>
  <g fill="#818cf8" opacity="0.5">
    <circle cx="8" cy="12" r="1.5"/>
    <circle cx="20" cy="8" r="1.5"/>
    <circle cx="66" cy="10" r="1.5"/>
    <circle cx="68" cy="42" r="1.5"/>
    <circle cx="56" cy="64" r="1.5"/>
    <circle cx="14" cy="62" r="1.5"/>
    <circle cx="6" cy="34" r="1.5"/>
  </g>
  <g filter="url(#glow)">
    <circle cx="16" cy="16" r="5" fill="url(#nodeGrad)" opacity="0.9"/>
    <circle cx="56" cy="14" r="4" fill="url(#nodeGrad)" opacity="0.85"/>
    <circle cx="62" cy="38" r="4.5" fill="url(#nodeGrad)" opacity="0.9"/>
    <circle cx="52" cy="58" r="4" fill="url(#nodeGrad)" opacity="0.85"/>
    <circle cx="18" cy="56" r="5" fill="url(#nodeGrad)" opacity="0.9"/>
    <circle cx="10" cy="38" r="3.5" fill="url(#nodeGrad)" opacity="0.8"/>
  </g>
  <circle cx="36" cy="36" r="9" fill="url(#centerGrad)" filter="url(#glow)"/>
  <circle cx="36" cy="36" r="5" fill="white" opacity="0.25"/>
  <circle cx="36" cy="36" r="2.5" fill="white" opacity="0.6"/>
</svg>
